<svg width="46" height="46" viewBox="0 0 46 46" fill="none" xmlns="http://www.w3.org/2000/svg">
<path fill-rule="evenodd" clip-rule="evenodd" d="M29.0871 7.7041C29.2931 7.66331 29.3979 7.74565 29.4015 7.95117C29.3499 8.27079 29.2515 8.58108 29.1096 8.87207C28.6703 9.6842 28.1749 10.4647 27.6271 11.208C27.5972 11.238 27.5972 11.2679 27.6271 11.2979C28.6094 10.2849 29.652 9.33235 30.7492 8.44531C30.9238 8.3092 31.1185 8.26428 31.3332 8.31055C31.3607 8.3666 31.376 8.42784 31.3781 8.49023C31.3402 8.72338 31.2579 8.94049 31.131 9.1416C30.5147 9.983 29.8471 10.7856 29.132 11.5449C29.7927 11.0984 30.4516 10.6492 31.1086 10.1973C31.5387 9.92661 32.0028 9.73942 32.5012 9.63574C32.6705 9.63835 32.8127 9.69827 32.9279 9.81543C32.9579 9.86035 32.9579 9.90527 32.9279 9.9502C31.9485 10.9598 30.8629 11.8357 29.6711 12.5781C30.6799 12.1647 31.6985 11.7753 32.7258 11.4102C33.0762 11.3124 33.4421 11.2819 33.8039 11.3203C33.9097 11.4041 33.9172 11.5014 33.8264 11.6123C33.5639 11.8666 33.2695 12.0856 32.9504 12.2637C31.9736 12.7521 30.9851 13.2164 29.9855 13.6562C30.7565 13.4858 31.5364 13.3583 32.3215 13.2744C32.4893 13.2757 32.654 13.2981 32.8156 13.3418C32.9014 13.3601 32.9463 13.4125 32.9504 13.499C32.8083 13.7384 32.6136 13.9256 32.3664 14.0605C31.9084 14.312 31.4441 14.5517 30.9738 14.7793C31.1113 14.8174 31.246 14.8623 31.3781 14.9141C31.4271 15.0068 31.4346 15.1041 31.4006 15.2061C31.0635 15.6626 30.7266 16.1193 30.3898 16.5762C30.6026 16.7403 30.685 16.9575 30.6369 17.2275C30.5141 17.6227 30.3405 18.0002 30.1203 18.3506C31.4294 21.4048 31.4369 24.4595 30.1428 27.5146C29.964 27.8731 29.7373 28.2056 29.4689 28.5029C29.439 28.5479 29.439 28.5928 29.4689 28.6377C30.272 29.0201 31.118 29.2521 32.007 29.334C33.2217 29.3753 34.4346 29.4202 35.6457 29.4688C35.7849 29.5437 35.8074 29.641 35.7131 29.7607C35.2408 30.3822 34.6194 30.6443 33.8488 30.5469C34.6175 30.8625 35.4148 31.1032 36.2297 31.2656C36.8599 31.2418 37.4892 31.1969 38.1164 31.1309C38.5653 31.2991 38.9771 31.5312 39.3517 31.8271C39.4075 31.889 39.415 31.9489 39.3742 32.0068C38.3111 32.0761 37.244 32.0535 36.1847 31.9395C34.5695 31.564 32.9523 31.1971 31.3332 30.8389C29.7177 31.1695 28.1005 31.4914 26.4816 31.8047C25.6174 31.9098 24.7456 31.9398 23.8762 31.8945C23.512 31.8682 23.1511 31.808 22.798 31.7148C22.1269 31.4511 21.4359 31.2409 20.7316 31.0859C19.5339 30.9784 18.336 30.8736 17.1379 30.7715C15.7872 30.5012 14.4395 30.2167 13.0949 29.918C11.0272 29.9203 8.96083 29.8753 6.89569 29.7832C6.8039 29.7694 6.71365 29.7468 6.62615 29.7158C6.56982 29.6368 6.58478 29.5694 6.67108 29.5137C6.92743 29.3883 7.19936 29.2976 7.47967 29.2441C8.70414 29.0151 9.93216 28.8054 11.1633 28.6152C12.1366 27.483 13.2297 27.3482 14.4426 28.2109C15.1089 28.8811 15.9025 29.3303 16.8234 29.5586C18.42 29.6154 19.8575 29.1662 21.1359 28.2109C21.8814 27.4912 22.3382 26.6152 22.506 25.583C22.8354 23.7563 22.8354 21.9296 22.506 20.1025C22.3777 19.3646 22.2279 18.6306 22.0568 17.9014C22.0224 17.7175 22.0373 17.5378 22.1017 17.3623C23.5745 14.3098 25.4163 11.5097 27.6271 8.96191C28.0726 8.483 28.5593 8.0637 29.0871 7.7041Z" fill="#7E7B7B"/>
</svg>
