<svg width="36" height="36" viewBox="0 0 36 36" fill="none" xmlns="http://www.w3.org/2000/svg">
<g clip-path="url(#clip0_4_2)">
    <path fill-rule="evenodd" clip-rule="evenodd" d="M-0.0175781 -0.0175781H35.9824V35.9824H-0.0175781V-0.0175781Z" fill="#DDD2C3"/>
    <path fill-rule="evenodd" clip-rule="evenodd" d="M22.7634 6.0293C22.9246 5.99738 23.0066 6.06182 23.0095 6.22266C22.9691 6.47279 22.8921 6.71563 22.781 6.94336C22.4372 7.57894 22.0496 8.18979 21.6209 8.77148C21.5974 8.79493 21.5974 8.81835 21.6209 8.8418C22.3896 8.04908 23.2055 7.30358 24.0642 6.60938C24.2009 6.50285 24.3532 6.4677 24.5212 6.50391C24.5428 6.54777 24.5547 6.5957 24.5564 6.64453C24.5268 6.82699 24.4623 6.9969 24.363 7.1543C23.8807 7.81278 23.3582 8.44092 22.7986 9.03516C23.3157 8.68573 23.8313 8.33416 24.3455 7.98047C24.682 7.76865 25.0453 7.62216 25.4353 7.54102C25.5678 7.54305 25.6791 7.58995 25.7693 7.68164C25.7927 7.7168 25.7927 7.75195 25.7693 7.78711C25.0028 8.57721 24.1532 9.26276 23.2205 9.84375C24.01 9.52023 24.8071 9.21546 25.6111 8.92969C25.8854 8.85321 26.1717 8.82935 26.4548 8.85938C26.5376 8.92494 26.5435 9.00109 26.4724 9.08789C26.267 9.2869 26.0366 9.45827 25.7869 9.59766C25.0225 9.97988 24.2488 10.3433 23.4666 10.6875C24.0699 10.5541 24.6802 10.4543 25.2947 10.3887C25.426 10.3897 25.5549 10.4072 25.6814 10.4414C25.7485 10.4557 25.7837 10.4968 25.7869 10.5645C25.6757 10.7518 25.5233 10.8983 25.3298 11.0039C24.9714 11.2007 24.608 11.3883 24.24 11.5664C24.3476 11.5962 24.453 11.6314 24.5564 11.6719C24.5948 11.7444 24.6006 11.8206 24.574 11.9004C24.3102 12.2577 24.0465 12.6151 23.783 12.9727C23.9495 13.1011 24.0139 13.2711 23.9763 13.4824C23.8802 13.7917 23.7443 14.0871 23.572 14.3613C24.5965 16.7516 24.6024 19.1422 23.5896 21.5332C23.4497 21.8137 23.2723 22.0739 23.0623 22.3066C23.0388 22.3418 23.0388 22.377 23.0623 22.4121C23.6907 22.7114 24.3528 22.893 25.0486 22.957C25.9992 22.9894 26.9485 23.0245 27.8962 23.0625C28.0052 23.1211 28.0228 23.1973 27.949 23.291C27.5794 23.7774 27.093 23.9825 26.49 23.9062C27.0915 24.1533 27.7155 24.3416 28.3533 24.4688C28.8465 24.4501 29.339 24.4149 29.8298 24.3633C30.1812 24.495 30.5035 24.6766 30.7966 24.9082C30.8403 24.9566 30.8461 25.0035 30.8142 25.0488C29.9822 25.103 29.1471 25.0854 28.3181 24.9961C27.054 24.7023 25.7884 24.4152 24.5212 24.1348C23.257 24.3935 21.9913 24.6454 20.7244 24.8906C20.048 24.9729 19.3657 24.9964 18.6853 24.9609C18.4003 24.9403 18.1178 24.8932 17.8416 24.8203C17.3163 24.6139 16.7755 24.4494 16.2244 24.3281C15.2871 24.244 14.3496 24.1619 13.4119 24.082C12.3549 23.8705 11.3001 23.6479 10.2478 23.4141C8.62963 23.4159 7.01244 23.3807 5.39624 23.3086C5.32441 23.2978 5.25378 23.2801 5.1853 23.2559C5.14122 23.194 5.15293 23.1413 5.22046 23.0977C5.42108 22.9995 5.6339 22.9286 5.85327 22.8867C6.81156 22.7075 7.77261 22.5434 8.73609 22.3945C9.49782 21.5084 10.3533 21.4029 11.3025 22.0781C11.824 22.6026 12.4451 22.9542 13.1658 23.1328C14.4153 23.1773 15.5403 22.8257 16.5408 22.0781C17.1242 21.5149 17.4817 20.8293 17.613 20.0215C17.8708 18.5919 17.8708 17.1623 17.613 15.7324C17.5126 15.1549 17.3954 14.5804 17.2615 14.0098C17.2345 13.8658 17.2462 13.7252 17.2966 13.5879C18.4492 11.199 19.8906 9.00759 21.6209 7.01367C21.9695 6.63887 22.3503 6.31072 22.7634 6.0293Z" fill="#7E7B7B"/>
</g>
<defs>
    <clipPath id="clip0_4_2">
        <rect width="36" height="36" fill="white"/>
    </clipPath>
</defs>
<style>
    @media (prefers-color-scheme:dark){:root{filter:invert(100%)}}
</style>
</svg>
